<svg width="122" height="18" viewBox="0 0 122 18" fill="none" xmlns="http://www.w3.org/2000/svg">
<path d="M61.5165 2.71078H58.8126C58.7591 2.71078 58.7158 2.7544 58.7158 2.80805V10.5C58.7158 12.1108 57.4161 13.4209 55.8187 13.4209C54.221 13.4209 52.9215 12.1108 52.9215 10.5V2.80805C52.9215 2.7544 52.8782 2.71078 52.8247 2.71078H50.1208C50.0673 2.71078 50.0241 2.7544 50.0241 2.80805V10.5C50.0241 13.7213 52.6235 16.3421 55.8187 16.3421C59.0138 16.3421 61.613 13.7213 61.613 10.5V2.80805C61.613 2.7544 61.5697 2.71078 61.5165 2.71078Z" fill="#1D253B"/>
<path d="M76.582 2.71078C73.3869 2.71078 70.7874 5.33156 70.7874 8.55259V16.2445C70.7874 16.2984 70.8307 16.3421 70.8842 16.3421H73.5881C73.6416 16.3421 73.6849 16.2984 73.6849 16.2445V8.55259C73.6849 6.94208 74.9846 5.63169 76.582 5.63169C78.1795 5.63169 79.4792 6.94208 79.4792 8.55259V16.2445C79.4792 16.2984 79.5225 16.3421 79.5757 16.3421H82.2799C82.3334 16.3421 82.3766 16.2984 82.3766 16.2445V8.55259C82.3766 5.33156 79.7772 2.71078 76.582 2.71078Z" fill="#1D253B"/>
<path d="M102.078 13.9078H94.5515C94.5105 13.9078 94.4883 13.8596 94.5145 13.828L101.669 5.17203C101.684 5.15453 101.692 5.13244 101.692 5.10948V2.80805C101.692 2.7544 101.648 2.71078 101.595 2.71078H91.6478C91.5946 2.71078 91.5513 2.7544 91.5513 2.80805V5.04751C91.5513 5.10116 91.5946 5.14478 91.6478 5.14478H98.2085C98.2495 5.14478 98.2717 5.19298 98.2455 5.22483L91.0909 13.8808C91.0763 13.8983 91.0684 13.9201 91.0684 13.9431V16.2445C91.0684 16.2984 91.1116 16.3421 91.1648 16.3421H102.078C102.131 16.3421 102.174 16.2984 102.174 16.2445V14.005C102.174 13.9514 102.131 13.9078 102.078 13.9078Z" fill="#1D253B"/>
<path d="M120.912 13.9058H113.385C113.344 13.9058 113.322 13.8576 113.348 13.826L120.503 5.17007C120.517 5.15256 120.525 5.13047 120.525 5.10752V2.80609C120.525 2.75243 120.482 2.70882 120.429 2.70882H110.482C110.428 2.70882 110.385 2.75243 110.385 2.80609V5.04554C110.385 5.0992 110.428 5.14281 110.482 5.14281H117.042C117.083 5.14281 117.106 5.19101 117.079 5.22257L109.925 13.8788C109.91 13.8963 109.902 13.9181 109.902 13.9411V16.2425C109.902 16.2965 109.945 16.3401 109.999 16.3401H120.912C120.965 16.3401 121.008 16.2965 121.008 16.2425V14.0031C121.008 13.9494 120.965 13.9058 120.912 13.9058Z" fill="#1D253B"/>
<path d="M37.9482 12.208C37.9946 12.8625 37.6514 13.4602 37.0762 13.7454C37.0702 13.7482 37.0645 13.7517 37.0594 13.7557L36.9868 13.7864C36.7953 13.8667 36.5921 13.9078 36.3829 13.9078H32.6889C32.6624 13.9078 32.6408 13.886 32.6408 13.859V10.792C32.6408 10.7651 32.6624 10.7433 32.6889 10.7433H36.3829C36.6334 10.7433 36.8756 10.8021 37.0998 10.9177C37.5839 11.1673 37.9095 11.6614 37.9482 12.208ZM37.1041 8.13253C36.8787 8.2496 36.6351 8.30928 36.3832 8.30928H32.6889C32.6624 8.30928 32.6408 8.28747 32.6408 8.2605V5.19355C32.6408 5.16658 32.6624 5.14477 32.6889 5.14477H36.3829C36.5921 5.14477 36.7953 5.18552 36.9866 5.26614L37.0543 5.29455C37.0588 5.29799 37.0637 5.30115 37.0691 5.30373C37.6457 5.58578 37.9912 6.18029 37.9488 6.83477C37.9132 7.38337 37.5888 7.8809 37.1041 8.13253ZM40.8496 6.60523C40.8496 4.45787 39.1167 2.71078 36.9866 2.71078H29.8401C29.7869 2.71078 29.7437 2.75411 29.7437 2.80805V16.2445C29.7437 16.2982 29.7869 16.3418 29.8401 16.3418H36.9866C39.1167 16.3418 40.8496 14.5947 40.8496 12.4473C40.8496 11.3309 40.3724 10.2661 39.5405 9.52613C40.3724 8.78644 40.8496 7.72166 40.8496 6.60523Z" fill="#1D253B"/>
<path d="M16.8477 1.73411L9.24276 3.7885C8.77603 3.91475 8.2962 3.63528 8.17127 3.16501C8.04633 2.69445 8.32324 2.2107 8.78969 2.08474L16.3949 0.0303467C16.8616 -0.0959006 17.3411 0.183278 17.4664 0.653836C17.5913 1.12439 17.3144 1.60815 16.8477 1.73411Z" fill="#1D253B"/>
<path d="M8.70655 1.73411L1.10165 3.7885C0.634921 3.91475 0.155097 3.63528 0.0301611 3.16501C-0.0947753 2.69445 0.182134 2.2107 0.648582 2.08474L8.25376 0.0303467C8.7205 -0.0959006 9.20003 0.183278 9.32526 0.653836C9.45019 1.12439 9.17328 1.60815 8.70655 1.73411Z" fill="#1D253B"/>
<path d="M16.8402 5.90918H8.95473C8.81898 5.90918 8.68494 5.94103 8.56342 6.00215L5.54246 7.52515C5.35776 7.6184 5.14033 7.6184 4.95563 7.52515L1.93439 6.00215C1.81315 5.94103 1.67911 5.90918 1.54336 5.90918H0.656283C0.293996 5.90918 0.000295466 5.61308 0.000295466 5.24782C0.000295466 4.88228 0.293996 4.58617 0.656283 4.58617H16.8402C17.2025 4.58617 17.4962 4.88228 17.4962 5.24782C17.4962 5.61308 17.2025 5.90918 16.8402 5.90918Z" fill="#1D253B"/>
<path d="M16.7964 10.5838H0.699814C0.313337 10.5838 0 10.2679 0 9.87821V7.76156C0 7.37163 0.313337 7.05572 0.699814 7.05572H1.54306C1.6791 7.05572 1.81286 7.08786 1.93438 7.14897L4.95562 8.67197C5.14032 8.76494 5.35747 8.76494 5.54217 8.67197L8.56341 7.14897C8.68493 7.08786 8.81897 7.05572 8.95472 7.05572H16.7964C17.1829 7.05572 17.4962 7.37163 17.4962 7.76156V9.87821C17.4962 10.2679 17.1829 10.5838 16.7964 10.5838Z" fill="#1D253B"/>
<path d="M16.6214 17.6396H0.874838C0.391599 17.6396 0 17.2448 0 16.7576V15.8756C0 15.3886 0.391599 14.9936 0.874838 14.9936H16.6214C17.1046 14.9936 17.4962 15.3886 17.4962 15.8756V16.7576C17.4962 17.2448 17.1046 17.6396 16.6214 17.6396Z" fill="#1D253B"/>
<path d="M15.0462 14.2828C14.4229 14.2828 13.7996 14.0435 13.3249 13.5652L12.6954 12.9305C12.4825 12.7156 12.1991 12.5974 11.898 12.5974C11.5966 12.5974 11.3134 12.7156 11.1003 12.9305L10.4707 13.5652C9.52163 14.5221 7.97743 14.5221 7.02859 13.5652L6.39879 12.9305C5.95881 12.4869 5.24334 12.4872 4.80365 12.9305L4.17413 13.5652C3.22501 14.5221 1.68081 14.5221 0.731688 13.5652L0.191247 13.0203C-0.0637489 12.7632 -0.0637489 12.3463 0.191247 12.0893C0.446242 11.8322 0.859755 11.8322 1.11475 12.0893L1.65548 12.6341C2.09517 13.0774 2.81064 13.0774 3.25034 12.6341L3.88014 11.9992C4.82926 11.0426 6.37346 11.0426 7.32229 11.9995L7.9521 12.6341C8.3918 13.0774 9.10726 13.0774 9.54724 12.6341L10.1768 11.9995C11.1259 11.0426 12.6698 11.0426 13.6189 11.9995L14.2487 12.6341C14.6884 13.0774 15.4039 13.0774 15.8436 12.6341L16.3815 12.0921C16.6365 11.835 17.05 11.835 17.305 12.0921C17.56 12.3492 17.56 12.7661 17.305 13.0232L16.7674 13.5652C16.2927 14.0435 15.6694 14.2828 15.0462 14.2828Z" fill="#1D253B"/>
</svg>
