<svg width="32" height="25" viewBox="0 0 32 25" fill="none" xmlns="http://www.w3.org/2000/svg">
<g clip-path="url(#clip0_55_1137)">
<path d="M27.0872 2.20864C25.0455 1.27118 22.8596 0.5816 20.5745 0.189488C20.5339 0.180474 20.4934 0.203009 20.4708 0.239065C20.1914 0.739347 19.8759 1.39287 19.6596 1.90667C17.1987 1.53709 14.7514 1.53709 12.3446 1.90667C12.1283 1.38385 11.8038 0.739347 11.5199 0.239065C11.4973 0.203009 11.4568 0.184981 11.4162 0.189488C9.13112 0.5816 6.94521 1.27118 4.90352 2.20864C4.88549 2.21766 4.87197 2.23118 4.85845 2.2447C0.711967 8.44188 -0.423808 14.4858 0.130558 20.4577C0.130558 20.4847 0.148586 20.5162 0.171122 20.5343C2.9069 22.5444 5.56154 23.7658 8.16211 24.5726C8.20267 24.5861 8.24774 24.5726 8.27478 24.5365C8.89225 23.6937 9.4376 22.8103 9.91084 21.8774C9.93788 21.8233 9.91084 21.7602 9.85676 21.7377C8.9869 21.4086 8.1576 21.003 7.35985 20.5478C7.29676 20.5117 7.29225 20.4216 7.35084 20.3765C7.5176 20.2503 7.68436 20.1196 7.84661 19.9889C7.87366 19.9664 7.91422 19.9619 7.95028 19.9754C13.1875 22.3686 18.8573 22.3686 24.0314 19.9754C24.0675 19.9574 24.108 19.9619 24.1351 19.9889C24.2973 20.1196 24.4641 20.2548 24.6308 20.3765C24.6894 20.4216 24.6849 20.5117 24.6218 20.5478C23.8241 21.012 22.9948 21.4086 22.1249 21.7377C22.0663 21.7602 22.0438 21.8233 22.0708 21.8819C22.5531 22.8148 23.0984 23.6982 23.7024 24.541C23.7294 24.5771 23.7745 24.5906 23.8151 24.5771C26.4291 23.7703 29.0793 22.5489 31.8196 20.5388C31.8421 20.5208 31.8601 20.4937 31.8601 20.4667C32.5272 13.5619 30.7424 7.56752 27.1277 2.25371C27.1187 2.23568 27.1052 2.22216 27.0872 2.21766V2.20864ZM10.6951 16.825C9.1176 16.825 7.81957 15.3782 7.81957 13.5979C7.81957 11.8177 9.09507 10.3709 10.6951 10.3709C12.2951 10.3709 13.5976 11.8312 13.5706 13.5979C13.5706 15.3737 12.2951 16.825 10.6951 16.825ZM21.3272 16.825C19.7497 16.825 18.4517 15.3782 18.4517 13.5979C18.4517 11.8177 19.7272 10.3709 21.3272 10.3709C22.9272 10.3709 24.2297 11.8312 24.2027 13.5979C24.2027 15.3737 22.9407 16.825 21.3272 16.825Z" fill="white"/>
</g>
<defs>
<clipPath id="clip0_55_1137">
<rect width="32" height="24.7887" fill="white"/>
</clipPath>
</defs>
</svg>
