<svg width="32" height="26" viewBox="0 0 32 26" fill="none" xmlns="http://www.w3.org/2000/svg">
<g clip-path="url(#clip0_55_1147)">
<path fill-rule="evenodd" clip-rule="evenodd" d="M15.9999 14.4852C13.2549 14.4852 11.0249 12.2602 11.0249 9.51016C11.0249 6.76016 13.2549 4.53516 15.9999 4.53516C18.7449 4.53516 20.9749 6.76016 20.9749 9.51016C20.9749 12.2602 18.7449 14.4852 15.9999 14.4852ZM13.8399 9.51016C13.8399 10.7052 14.8099 11.6702 15.9999 11.6702C17.1899 11.6702 18.1599 10.7002 18.1599 9.51016C18.1599 8.32016 17.1899 7.35016 15.9999 7.35016C14.8099 7.35016 13.8399 8.32016 13.8399 9.51016Z" fill="white"/>
<path fill-rule="evenodd" clip-rule="evenodd" d="M0 9.52L9.515 0H22.49L32.005 9.52L16.005 25.515L0 9.52ZM23.35 6.055C19.31 1.995 12.69 1.995 8.645 6.055L5.185 9.515L8.645 12.975C12.685 17.035 19.305 17.035 23.35 12.975L26.81 9.515L23.35 6.055Z" fill="white"/>
</g>
<defs>
<clipPath id="clip0_55_1147">
<rect width="32" height="25.515" fill="white"/>
</clipPath>
</defs>
</svg>
