<svg width="32" height="32" viewBox="0 0 32 32" fill="none" xmlns="http://www.w3.org/2000/svg">
<g clip-path="url(#clip0_55_1133)">
<path d="M32 16C32 24.8356 24.8356 32 16 32C7.16444 32 0 24.8356 0 16C0 7.16444 7.16444 0 16 0C24.8356 0 32 7.16444 32 16Z" fill="white"/>
<path d="M7.89323 16.5367L7.96079 16.4265L12.1243 9.91626C12.1848 9.82026 12.327 9.83092 12.3732 9.93403C13.0701 11.4914 13.6675 13.4291 13.3866 14.638C13.2657 15.1358 12.9386 15.8078 12.5688 16.4265C12.5226 16.5154 12.4692 16.6043 12.4123 16.6896C12.3875 16.7287 12.3412 16.7536 12.295 16.7536H8.01412C7.90034 16.7536 7.83279 16.6291 7.89323 16.5367Z" fill="black"/>
<path d="M26.4464 17.746V18.7771C26.4464 18.8375 26.4109 18.8873 26.3575 18.9122C26.034 19.0508 24.9318 19.5557 24.4731 20.1957C23.3033 21.8242 22.4073 24.1531 20.4091 24.1531H12.0713C9.11666 24.1531 6.72021 21.7495 6.72021 18.7842V18.6882C6.72021 18.61 6.78421 18.546 6.86244 18.546H11.5095C11.602 18.546 11.6695 18.6313 11.6624 18.7202C11.6304 19.0224 11.6838 19.3317 11.8295 19.6126C12.1069 20.1744 12.6793 20.5228 13.2944 20.5228H15.5949V18.7273H13.3193C13.202 18.7273 13.1344 18.5922 13.202 18.4962C13.2269 18.4571 13.2553 18.418 13.2838 18.3753C13.5007 18.0695 13.8064 17.5931 14.1122 17.0526C14.322 16.6864 14.5247 16.2988 14.6847 15.9077C14.7167 15.8366 14.7451 15.7655 14.77 15.6944C14.8127 15.57 14.8589 15.4526 14.8944 15.3353C14.9264 15.2357 14.9549 15.1326 14.9798 15.0366C15.058 14.706 15.09 14.354 15.09 13.9877C15.09 13.8455 15.0829 13.6962 15.0687 13.5504C15.0615 13.394 15.0438 13.2375 15.0224 13.0811C15.0082 12.9424 14.9833 12.8073 14.9584 12.6651C14.9264 12.4553 14.8802 12.2491 14.8269 12.0393L14.8091 11.9611C14.77 11.8188 14.738 11.6802 14.6918 11.538C14.5602 11.09 14.4109 10.6526 14.2544 10.2437C14.1975 10.0802 14.13 9.92373 14.066 9.76729C13.97 9.53262 13.8704 9.31929 13.7815 9.11662C13.7353 9.02418 13.6962 8.9424 13.6571 8.85351C13.6144 8.75751 13.5682 8.65796 13.522 8.56907C13.49 8.49796 13.4509 8.43396 13.426 8.3664L13.1451 7.84729C13.106 7.77618 13.17 7.6944 13.2482 7.71573L15.0082 8.19218H15.0118C15.0118 8.19218 15.0153 8.19218 15.0189 8.19218L15.25 8.25618L15.506 8.32729L15.5984 8.35218V7.30684C15.5984 6.80196 16.0038 6.39307 16.5015 6.39307C16.7504 6.39307 16.978 6.49618 17.1415 6.65973C17.3051 6.82684 17.4047 7.0544 17.4047 7.30684V8.85707L17.5931 8.9104C17.5931 8.9104 17.6215 8.92107 17.6358 8.93173C17.682 8.96729 17.746 9.01707 17.8313 9.08107C17.8953 9.1344 17.9664 9.1984 18.0518 9.2624C18.2224 9.39751 18.4215 9.57529 18.6455 9.77796C18.706 9.82773 18.7629 9.88107 18.8162 9.9344C19.1007 10.2011 19.4242 10.514 19.73 10.8588C19.8153 10.9548 19.9007 11.0544 19.986 11.1575C20.0713 11.2642 20.1602 11.3673 20.242 11.4704C20.3451 11.6091 20.4589 11.7513 20.5549 11.9006C20.6011 11.9717 20.6544 12.0428 20.6971 12.114C20.8215 12.3024 20.9318 12.498 21.0384 12.6935C21.0811 12.7824 21.1273 12.882 21.17 12.978C21.2873 13.2411 21.3798 13.5042 21.4367 13.7708C21.4544 13.8277 21.4687 13.8917 21.4758 13.9451V13.9593C21.4971 14.0375 21.5007 14.1228 21.5078 14.2082C21.5327 14.482 21.522 14.7522 21.4615 15.0295C21.4367 15.1468 21.4047 15.2571 21.3655 15.3744C21.3264 15.4846 21.2873 15.602 21.234 15.7122C21.1344 15.9397 21.0171 16.1708 20.882 16.3842C20.8393 16.4624 20.786 16.5477 20.7327 16.626C20.6758 16.7113 20.6153 16.7895 20.562 16.8677C20.4909 16.9673 20.4127 17.0704 20.3344 17.1628C20.2633 17.2588 20.1922 17.3584 20.114 17.4437C20.0038 17.5753 19.8971 17.6962 19.7869 17.8135C19.7229 17.8917 19.6518 17.97 19.5771 18.0411C19.506 18.1193 19.4349 18.1904 19.3673 18.258C19.2571 18.3682 19.1647 18.4535 19.0864 18.5246L18.9051 18.6917C18.8802 18.7131 18.8447 18.7273 18.8091 18.7273H17.4082V20.5228H19.1718C19.5664 20.5228 19.9398 20.3842 20.242 20.1282C20.3451 20.0393 20.7967 19.6482 21.3335 19.058C21.3513 19.0366 21.3762 19.0224 21.4011 19.0153L26.2687 17.6073C26.3575 17.5824 26.45 17.65 26.45 17.746H26.4464Z" fill="black"/>
</g>
<defs>
<clipPath id="clip0_55_1133">
<rect width="32" height="32" fill="white"/>
</clipPath>
</defs>
</svg>
