<svg width="32" height="32" viewBox="0 0 32 32" fill="none" xmlns="http://www.w3.org/2000/svg">
<g clip-path="url(#clip0_55_1140)">
<path d="M16 0C24.835 0 32 7.165 32 16C32 24.835 24.835 32 16 32C7.165 32 0 24.835 0 16C0 7.165 7.165 0 16 0Z" fill="white"/>
<path fill-rule="evenodd" clip-rule="evenodd" d="M17.66 5.84C17.075 5.615 16.465 5.5 15.82 5.5C15.175 5.5 14.56 5.615 13.97 5.84C13.385 6.055 12.865 6.38 12.4 6.805C12.14 7.045 11.91 7.31 11.715 7.61V5.715H3.5V8.055H6.285V15.17H8.93V8.055H11.45C11.395 8.155 11.345 8.26 11.3 8.365C11.035 8.98 10.905 9.68 10.905 10.46C10.905 11.24 11.035 11.945 11.3 12.555C11.575 13.17 11.94 13.69 12.405 14.115C12.865 14.54 13.39 14.865 13.975 15.095C14.57 15.31 15.185 15.42 15.825 15.42C16.465 15.42 17.08 15.31 17.665 15.095C18.26 14.87 18.785 14.54 19.25 14.115C19.71 13.69 20.075 13.17 20.34 12.555C20.615 11.94 20.75 11.24 20.75 10.46C20.75 9.68 20.615 8.975 20.34 8.365C20.075 7.75 19.715 7.23 19.25 6.805C18.79 6.38 18.26 6.06 17.665 5.84H17.66ZM14.69 8.305C15.02 8.09 15.395 7.98 15.82 7.98C16.245 7.98 16.62 8.09 16.95 8.305C17.29 8.52 17.555 8.82 17.74 9.2C17.93 9.57 18.025 9.99 18.025 10.46C18.025 10.93 17.93 11.36 17.74 11.735C17.55 12.105 17.29 12.395 16.95 12.615C16.62 12.83 16.245 12.94 15.82 12.94C15.395 12.94 15.02 12.83 14.69 12.615C14.36 12.4 14.095 12.105 13.9 11.735C13.71 11.355 13.615 10.93 13.615 10.46C13.615 9.99 13.71 9.565 13.9 9.2C14.1 8.82 14.36 8.525 14.69 8.305Z" fill="black"/>
<path d="M20.3752 21.3949V15.6299H17.7302V21.2149C17.7302 21.7049 17.6002 22.1099 17.3352 22.4199C17.0702 22.7199 16.6552 22.8799 16.0902 22.8899C15.5252 22.8999 15.1102 22.7499 14.8452 22.4349C14.5802 22.1149 14.4502 21.7099 14.4502 21.2149V15.6299H11.8052V21.3949C11.8052 22.2149 12.0002 22.9249 12.3852 23.5199C12.7702 24.1149 13.2902 24.5749 13.9402 24.8949C14.5902 25.2049 15.3052 25.3649 16.0902 25.3649C16.8752 25.3649 17.6002 25.2099 18.2402 24.8949C18.8902 24.5749 19.4102 24.1149 19.7952 23.5199C20.1802 22.9249 20.3752 22.2149 20.3752 21.3949Z" fill="black"/>
<path d="M10.4249 21.9498V19.6098H7.05992V17.9948H11.1299V15.6548H4.41992V25.1498H7.06492V21.9448H10.4299L10.4249 21.9498Z" fill="black"/>
<path d="M26.5549 21.6651H24.2199V18.2901H21.0249V15.6401H30.4949V30.5001H28.1599V27.7101H21.0649V25.0601H28.1599V18.2901H26.5499V21.6651H26.5549Z" fill="black"/>
<path d="M21.0249 14.3848H30.4999V11.9898H25.6249L30.4999 6.64984V5.71484H21.0249V8.16484H25.5349L21.0249 13.4498V14.3848Z" fill="black"/>
</g>
<defs>
<clipPath id="clip0_55_1140">
<rect width="32" height="32" fill="white"/>
</clipPath>
</defs>
</svg>
