<svg width="32" height="27" viewBox="0 0 32 27" fill="none" xmlns="http://www.w3.org/2000/svg">
<g clip-path="url(#clip0_55_1130)">
<path d="M28.7239 6.47265C28.7435 6.75476 28.7435 7.03686 28.7435 7.32157C28.7435 15.9966 22.1393 26.0016 10.0635 26.0016V25.9964C6.4962 26.0016 3.00305 24.9797 0 23.0531C0.518708 23.1155 1.04002 23.1467 1.56262 23.148C4.51887 23.1506 7.39062 22.1587 9.71635 20.3322C6.90701 20.2789 4.44347 18.4471 3.58286 15.773C4.56697 15.9628 5.58099 15.9238 6.5469 15.6599C3.48405 15.0411 1.28052 12.35 1.28052 9.2248V9.1416C2.19313 9.6499 3.21495 9.93201 4.26017 9.96321C1.37542 8.03528 0.486208 4.19762 2.22823 1.19717C5.56149 5.29874 10.4795 7.79218 15.7588 8.05608C15.2297 5.77584 15.9525 3.38641 17.6582 1.78348C20.3024 -0.702158 24.4612 -0.574756 26.9468 2.06819C28.4171 1.77828 29.8264 1.23877 31.116 0.47436C30.6259 1.99408 29.6002 3.285 28.2299 4.10532C29.5313 3.95191 30.8027 3.60351 32 3.0718C31.1186 4.39262 30.0084 5.54314 28.7239 6.47265Z" fill="white"/>
</g>
<defs>
<clipPath id="clip0_55_1130">
<rect width="32" height="26.0017" fill="white"/>
</clipPath>
</defs>
</svg>
