<svg width="24" height="20" viewBox="0 0 24 20" fill="none" xmlns="http://www.w3.org/2000/svg">
<path d="M21.543 4.85486C21.5576 5.06644 21.5576 5.27801 21.5576 5.49154C21.5576 11.9978 16.6045 19.5015 7.54759 19.5015V19.4976C4.87215 19.5015 2.25229 18.7352 0 17.2902C0.389031 17.337 0.780012 17.3604 1.17197 17.3614C3.38915 17.3633 5.54296 16.6194 7.28726 15.2495C5.18026 15.2095 3.3326 13.8357 2.68714 11.8301C3.42523 11.9725 4.18574 11.9432 4.91018 11.7453C2.61304 11.2812 0.96039 9.2629 0.96039 6.91897V6.85656C1.64485 7.2378 2.41121 7.44937 3.19512 7.47277C1.03157 6.02683 0.364656 3.14858 1.67118 0.898245C4.17111 3.97442 7.8596 5.8445 11.8191 6.04243C11.4223 4.33225 11.9644 2.54017 13.2436 1.33798C15.2268 -0.526253 18.3459 -0.430701 20.2101 1.55151C21.3129 1.33408 22.3698 0.929446 23.337 0.356137C22.9694 1.49593 22.2001 2.46412 21.1725 3.07935C22.1484 2.9643 23.102 2.703 24 2.30422C23.3389 3.29288 22.5073 4.15577 21.5439 4.85291L21.543 4.85486Z" fill="#1D253B"/>
</svg>
